<?xml version="1.0" standalone="no"?>
<!DOCTYPE svg PUBLIC "-//W3C//DTD SVG 20010904//EN"
 "http://www.w3.org/TR/2001/REC-SVG-20010904/DTD/svg10.dtd">
<svg version="1.0" xmlns="http://www.w3.org/2000/svg"
 width="512.000000pt" height="512.000000pt" viewBox="0 0 512.000000 512.000000"
 preserveAspectRatio="xMidYMid meet">

<g transform="translate(0.000000,512.000000) scale(0.100000,-0.100000)"
fill="#000000" stroke="none">
<path d="M2029 5100 c-60 -32 -183 -190 -248 -318 -46 -91 -98 -254 -112 -351
-18 -127 -7 -333 25 -454 95 -367 374 -672 728 -796 226 -79 456 -87 688 -25
175 46 369 156 484 272 50 51 59 66 63 105 3 25 2 58 -2 74 -4 17 -77 98 -196
218 l-189 191 142 309 c129 282 142 316 146 378 2 37 -1 87 -8 111 -17 63 -76
134 -140 170 -50 28 -63 31 -140 31 l-85 -1 -313 -144 -313 -144 -182 181
c-100 100 -196 188 -214 197 -42 21 -90 20 -134 -4z m1120 -624 c-56 -124
-105 -226 -108 -226 -4 0 -62 56 -131 125 l-124 124 64 30 c36 16 139 63 230
105 90 41 166 73 168 71 2 -2 -42 -105 -99 -229z"/>
<path d="M1857 3103 c-8 -26 -47 -170 -88 -320 l-74 -272 -485 -3 -485 -3 -56
-26 c-79 -37 -133 -90 -171 -167 -33 -66 -33 -68 -36 -234 l-4 -168 2102 0
2102 0 -4 168 c-3 166 -3 168 -36 234 -38 77 -92 130 -171 167 l-56 26 -489 5
-490 5 -62 180 c-35 99 -64 183 -66 187 -2 5 -55 -5 -119 -21 -421 -107 -855
-26 -1201 222 -41 30 -80 57 -86 61 -7 4 -16 -11 -25 -41z"/>
<path d="M810 955 l0 -655 -115 0 c-96 0 -122 -3 -155 -20 -45 -23 -80 -80
-80 -130 0 -50 35 -107 80 -130 38 -19 58 -20 655 -20 l615 0 0 490 c0 462 1
493 19 528 11 22 35 46 59 60 l40 22 631 0 c613 0 633 -1 671 -20 26 -13 47
-34 60 -60 19 -38 20 -58 20 -530 l0 -490 615 0 c597 0 617 1 655 20 45 23 80
80 80 130 0 50 -35 107 -80 130 -33 17 -59 20 -155 20 l-115 0 0 655 0 655
-1750 0 -1750 0 0 -655z"/>
<path d="M2110 400 l0 -400 150 0 150 0 0 400 0 400 -150 0 -150 0 0 -400z"/>
<path d="M2710 400 l0 -400 150 0 150 0 0 400 0 400 -150 0 -150 0 0 -400z"/>
</g>
</svg>
